<?xml version="1.0" encoding="UTF-8"?>
<svg version="1.1" xmlns="http://www.w3.org/2000/svg" width="500" height="500">
<path d="M0 0 C165 0 330 0 500 0 C500 165 500 330 500 500 C335 500 170 500 0 500 C0 335 0 170 0 0 Z " fill="#0E0E0E" transform="translate(0,0)"/>
<path d="M0 0 C-25.34033507 9.81001036 -50.69516236 19.5809647 -76.07641602 29.28466797 C-77.03975861 29.65309311 -78.0031012 30.02151825 -78.99563599 30.40110779 C-80.79414065 31.08886303 -82.59277674 31.77627475 -84.39157104 32.46327209 C-88.2728116 33.94737067 -92.14838277 35.44009258 -96 37 C-95.91923802 40.77171831 -95.80638565 44.54180596 -95.6875 48.3125 C-95.66494141 49.38435547 -95.64238281 50.45621094 -95.61914062 51.56054688 C-95.58369141 52.58857422 -95.54824219 53.61660156 -95.51171875 54.67578125 C-95.48553467 55.62364502 -95.45935059 56.57150879 -95.43237305 57.5480957 C-94.93027548 60.39539433 -94.3305733 61.32931473 -92 63 C-87.92205575 63.42478586 -86.46923881 63.31282587 -83 61 C-82.49095616 58.5842887 -82.49095616 58.5842887 -82.48828125 55.7734375 C-82.45283203 54.7421875 -82.41738281 53.7109375 -82.38085938 52.6484375 C-82.34702148 51.02808594 -82.34702148 51.02808594 -82.3125 49.375 C-82.27833984 48.28703125 -82.24417969 47.1990625 -82.20898438 46.078125 C-82.12631666 43.38551937 -82.05722913 40.69324709 -82 38 C-79.36 38 -76.72 38 -74 38 C-74 48.89 -74 59.78 -74 71 C-76.64 71 -79.28 71 -82 71 C-82 70.34 -82 69.68 -82 69 C-82.54785156 69.32226562 -83.09570312 69.64453125 -83.66015625 69.9765625 C-86.39904364 71.17453996 -88.45487651 71.33363213 -91.4375 71.375 C-92.36433594 71.40335937 -93.29117188 71.43171875 -94.24609375 71.4609375 C-97.74044114 70.87606801 -99.42539897 69.36433415 -102 67 C-101.77280273 67.93851807 -101.77280273 67.93851807 -101.54101562 68.89599609 C-100.8583345 71.7217708 -100.17912568 74.5483688 -99.5 77.375 C-99.26152344 78.35984375 -99.02304688 79.3446875 -98.77734375 80.359375 C-98.55175781 81.30039063 -98.32617188 82.24140625 -98.09375 83.2109375 C-97.77954102 84.51490479 -97.77954102 84.51490479 -97.45898438 85.84521484 C-97 88 -97 88 -97 90 C-35.95 90 25.1 90 88 90 C88 90.33 88 90.66 88 91 C41.6825864 92.96333884 -4.63511134 94.91576274 -50.96166992 96.65240097 C-53.55934026 96.74988143 -56.156991 96.84787086 -58.75463867 96.94595337 C-62.81727087 97.09915747 -66.87995856 97.25079078 -70.94270134 97.4010334 C-72.41737238 97.45568772 -73.89202941 97.51072182 -75.36667061 97.56617546 C-77.37273597 97.641428 -79.37887158 97.71480053 -81.38500977 97.78808594 C-83.05914696 97.84993073 -83.05914696 97.84993073 -84.7671051 97.9130249 C-88.1795779 98.00483121 -91.58645856 98.01464771 -95 98 C-94.72512253 98.95608658 -94.45024506 99.91217316 -94.16703796 100.89723206 C-90.15359654 115.01986264 -86.62772697 129.26247178 -83.09716249 143.51169658 C-82.39974873 146.32520957 -81.70077963 149.13833528 -81.00184363 151.95147043 C-79.3525412 158.58988415 -77.70581879 165.22893402 -76.06079102 171.8684082 C-74.37216854 178.68364336 -72.67917089 185.49778112 -70.98404866 192.31140226 C-69.51815857 198.20426253 -68.05495743 204.09778604 -66.59387988 209.99184138 C-65.72573036 213.49389504 -64.85661632 216.9957015 -63.98490334 220.49687004 C-63.01442845 224.39530761 -62.04957572 228.29511628 -61.08520508 232.19506836 C-60.80102722 233.33348679 -60.51684937 234.47190521 -60.22406006 235.64482117 C-58.56095374 242.39415529 -57.15312559 249.14481196 -56 256 C-58.65824882 253.34175118 -58.95798895 251.06449717 -59.91796875 247.4296875 C-60.09585434 246.76526138 -60.27373993 246.10083527 -60.45701599 245.41627502 C-60.83978568 243.98448587 -61.21958632 242.55190037 -61.59674072 241.11862183 C-62.593159 237.33436337 -63.61228475 233.55621492 -64.62890625 229.77734375 C-64.83163147 229.02161575 -65.03435669 228.26588776 -65.2432251 227.48725891 C-66.95720851 221.11360469 -68.76077145 214.76890297 -70.625 208.4375 C-70.90561279 207.48407715 -71.18622559 206.5306543 -71.4753418 205.54833984 C-72.03517252 203.65031797 -72.59579089 201.75252822 -73.15722656 199.85498047 C-74.61780775 194.90711361 -76.05757402 189.9531835 -77.5 185 C-78.08323965 182.99997268 -78.66657285 180.99997263 -79.25 179 C-82.75 167 -82.75 167 -83.625 163.99975586 C-84.20815832 162.0005186 -84.79149156 160.00133236 -85.375 158.00219727 C-86.83745221 152.99093174 -88.29681861 147.97880612 -89.75 142.96484375 C-90.33312068 140.95566744 -90.91645303 138.94655254 -91.5 136.9375 C-91.78367432 135.96014893 -92.06734863 134.98279785 -92.35961914 133.97583008 C-93.86851545 128.80033708 -95.4099754 123.63676332 -96.99609375 118.484375 C-97.3209375 117.42871338 -97.64578125 116.37305176 -97.98046875 115.28540039 C-98.6053953 113.26251952 -99.23413382 111.24081124 -99.8671875 109.22045898 C-100.28677734 107.86416382 -100.28677734 107.86416382 -100.71484375 106.48046875 C-100.96355225 105.68535889 -101.21226074 104.89024902 -101.46850586 104.07104492 C-102 102 -102 102 -102 99 C-116.39586236 99.50074437 -130.79160325 100.0048623 -145.1872139 100.51279354 C-151.87247713 100.74861594 -158.55777638 100.98330532 -165.24316406 101.21557617 C-171.70122948 101.43998877 -178.15918978 101.66723201 -184.61708832 101.89639473 C-187.07445528 101.98310629 -189.53185777 102.06881733 -191.98929596 102.15348625 C-195.44511327 102.27272872 -198.90078434 102.39560711 -202.35644531 102.51928711 C-203.86265442 102.56999863 -203.86265442 102.56999863 -205.39929199 102.62173462 C-211.35378053 102.83927288 -217.26925419 103.23441816 -223.20307922 103.77809906 C-228.16546311 104.17180261 -233.13370948 104.2358097 -238.109375 104.31640625 C-239.20219788 104.33718735 -240.29502075 104.35796844 -241.42095947 104.37937927 C-244.86391778 104.4440315 -248.30694303 104.50336168 -251.75 104.5625 C-254.1041732 104.60576571 -256.45833998 104.64938236 -258.8125 104.69335938 C-264.5415988 104.7996245 -270.27076208 104.90153684 -276 105 C-276.50636607 103.25183142 -277.00484619 101.50137737 -277.5 99.75 C-277.7784375 98.77546875 -278.056875 97.8009375 -278.34375 96.796875 C-279 94 -279 94 -279 90 C-278.07381615 89.97716698 -278.07381615 89.97716698 -277.12892151 89.95387268 C-268.5117888 89.48081506 -260.84710328 86.91836022 -252.77734375 84.08984375 C-251.34093996 83.5968623 -249.90412863 83.10506686 -248.4669342 82.61439514 C-244.71746728 81.3312331 -240.97304654 80.03396796 -237.22973633 78.73297119 C-231.20929452 76.64370668 -225.18075219 74.57788157 -219.15326118 72.50906563 C-217.05243454 71.78597978 -214.95343125 71.05780091 -212.85472107 70.32859802 C-211.57626226 69.88689722 -210.29778528 69.44524899 -209.01928711 69.00366211 C-207.90218857 68.61585068 -206.78509003 68.22803925 -205.63414001 67.82847595 C-203 67 -203 67 -201 67 C-201.48895752 65.94002808 -201.48895752 65.94002808 -201.98779297 64.85864258 C-203.07802822 61.77963521 -203.23011332 59.51559561 -203.1953125 56.26171875 C-203.18886719 55.19501953 -203.18242187 54.12832031 -203.17578125 53.02929688 C-203.15064453 51.37510742 -203.15064453 51.37510742 -203.125 49.6875 C-203.11597656 48.56537109 -203.10695313 47.44324219 -203.09765625 46.28710938 C-203.07414486 43.52452091 -203.04128155 40.76237068 -203 38 C-200.03 38 -197.06 38 -194 38 C-193.97494385 38.65597168 -193.9498877 39.31194336 -193.92407227 39.98779297 C-193.8082674 42.95040183 -193.68547114 45.91268031 -193.5625 48.875 C-193.52318359 49.90753906 -193.48386719 50.94007813 -193.44335938 52.00390625 C-193.40146484 52.99003906 -193.35957031 53.97617188 -193.31640625 54.9921875 C-193.27974854 55.90339355 -193.24309082 56.81459961 -193.20532227 57.75341797 C-193.13422935 60.03483481 -193.13422935 60.03483481 -192 62 C-188.37 61.34 -184.74 60.68 -181 60 C-181 52.74 -181 45.48 -181 38 C-178.03 38 -175.06 38 -172 38 C-171.505 46.91 -171.505 46.91 -171 56 C-170.01 55.67 -169.02 55.34 -168 55 C-167.67 49.39 -167.34 43.78 -167 38 C-164.03 38 -161.06 38 -158 38 C-157.67 38.66 -157.34 39.32 -157 40 C-156.46375 39.505 -155.9275 39.01 -155.375 38.5 C-152.3872288 36.61298661 -150.47256915 36.69132719 -147 37 C-146 38 -146 38 -145.9375 41.5625 C-145.958125 42.696875 -145.97875 43.83125 -146 45 C-146.69867188 45.08636719 -147.39734375 45.17273438 -148.1171875 45.26171875 C-149.02726563 45.40222656 -149.93734375 45.54273438 -150.875 45.6875 C-152.23238281 45.87892578 -152.23238281 45.87892578 -153.6171875 46.07421875 C-156.25655354 46.79570171 -156.25655354 46.79570171 -157.3203125 49.58203125 C-157.54460937 50.37996094 -157.76890625 51.17789063 -158 52 C-157.01257813 51.6390625 -156.02515625 51.278125 -155.0078125 50.90625 C-153.71360209 50.43733319 -152.41932794 49.96859231 -151.125 49.5 C-150.47402344 49.26152344 -149.82304687 49.02304688 -149.15234375 48.77734375 C-144.2265625 47 -144.2265625 47 -142 47 C-141.6596875 46.13375 -141.6596875 46.13375 -141.3125 45.25 C-139.33370463 41.85777937 -136.49013058 39.74506529 -133 38 C-130.87819497 38.10203686 -128.75720417 38.22112671 -126.63671875 38.34765625 C-117.31519017 38.55277477 -109.32620545 35.62642568 -100.66052246 32.47335815 C-97.73171396 31.4081172 -94.79402141 30.37173757 -91.85253906 29.34204102 C-87.42495944 27.79090143 -83.00099855 26.22994605 -78.57861328 24.6640625 C-66.15914595 20.2825926 -53.69112824 16.04133384 -41.22056675 11.8078928 C-36.5831069 10.23323655 -31.94923146 8.64858818 -27.31803226 7.05561638 C-24.4081408 6.05660569 -21.49571345 5.06515817 -18.58256721 4.07568359 C-17.21380536 3.60909305 -15.8460913 3.13941644 -14.47949028 2.66653442 C-12.60149685 2.01730676 -10.71930105 1.38027303 -8.83691406 0.74389648 C-7.77732483 0.38134262 -6.7177356 0.01878876 -5.6260376 -0.35475159 C-3 -1 -3 -1 0 0 Z " fill="#1E8EFB" transform="translate(350,158)"/>
<path d="M0 0 C1 1 1 1 1.0625 4.5625 C1.041875 5.696875 1.02125 6.83125 1 8 C0.30132812 8.08636719 -0.39734375 8.17273438 -1.1171875 8.26171875 C-2.48230469 8.47248047 -2.48230469 8.47248047 -3.875 8.6875 C-5.23238281 8.87892578 -5.23238281 8.87892578 -6.6171875 9.07421875 C-9.25655354 9.79570171 -9.25655354 9.79570171 -10.3203125 12.58203125 C-10.65675781 13.77892578 -10.65675781 13.77892578 -11 15 C-9.51886719 14.45859375 -9.51886719 14.45859375 -8.0078125 13.90625 C-6.71360209 13.43733319 -5.41932794 12.96859231 -4.125 12.5 C-3.47402344 12.26152344 -2.82304687 12.02304688 -2.15234375 11.77734375 C2.7734375 10 2.7734375 10 5 10 C5.226875 9.4225 5.45375 8.845 5.6875 8.25 C7.66629537 4.85777937 10.50986942 2.74506529 14 1 C15.81341842 0.91528636 17.62994161 0.89278917 19.4453125 0.90234375 C20.41484863 0.90484131 21.38438477 0.90733887 22.38330078 0.90991211 C23.61806152 0.91901611 24.85282227 0.92812012 26.125 0.9375 C32.003125 0.9684375 32.003125 0.9684375 38 1 C38 16.18 38 31.36 38 47 C35.03 47 32.06 47 29 47 C29 42.05 29 37.1 29 32 C27.02 32.99 27.02 32.99 25 34 C19.7598978 34.68073835 15.3390108 34.65733258 10.5625 32.3125 C5.52145407 27.76326343 3.54178365 24.90774155 3 18 C2.15695313 18.3609375 1.31390625 18.721875 0.4453125 19.09375 C-0.65039062 19.5578125 -1.74609375 20.021875 -2.875 20.5 C-4.51082031 21.19609375 -4.51082031 21.19609375 -6.1796875 21.90625 C-9 23 -9 23 -11 23 C-11 26.63 -11 30.26 -11 34 C-13.97 34 -16.94 34 -20 34 C-20 31.69 -20 29.38 -20 27 C-22.03241727 27.63979849 -22.03241727 27.63979849 -24 29 C-24.81171228 31.55519921 -24.81171228 31.55519921 -25 34 C-27.64 34 -30.28 34 -33 34 C-33 33.34 -33 32.68 -33 32 C-33.969375 32.515625 -34.93875 33.03125 -35.9375 33.5625 C-40.40391802 35.45597133 -44.37697617 35.43114246 -49 34 C-52.31631838 31.38928127 -54.42598891 28.89282787 -56 25 C-56.22705078 22.34277344 -56.22705078 22.34277344 -56.1953125 19.359375 C-56.18886719 18.28945312 -56.18242187 17.21953125 -56.17578125 16.1171875 C-56.15902344 15.00601563 -56.14226562 13.89484375 -56.125 12.75 C-56.11597656 11.62335938 -56.10695312 10.49671875 -56.09765625 9.3359375 C-56.07410658 6.55707635 -56.0412168 3.7786461 -56 1 C-53.03 1 -50.06 1 -47 1 C-46.97494385 1.65597168 -46.9498877 2.31194336 -46.92407227 2.98779297 C-46.8082674 5.95040183 -46.68547114 8.91268031 -46.5625 11.875 C-46.52318359 12.90753906 -46.48386719 13.94007813 -46.44335938 15.00390625 C-46.38051758 16.48310547 -46.38051758 16.48310547 -46.31640625 17.9921875 C-46.27974854 18.90339355 -46.24309082 19.81459961 -46.20532227 20.75341797 C-46.13422935 23.03483481 -46.13422935 23.03483481 -45 25 C-39.555 24.01 -39.555 24.01 -34 23 C-34 15.74 -34 8.48 -34 1 C-31.03 1 -28.06 1 -25 1 C-24.67 6.94 -24.34 12.88 -24 19 C-23.01 18.67 -22.02 18.34 -21 18 C-20.67 12.39 -20.34 6.78 -20 1 C-17.03 1 -14.06 1 -11 1 C-10.505 1.99 -10.505 1.99 -10 3 C-9.46375 2.505 -8.9275 2.01 -8.375 1.5 C-5.3872288 -0.38701339 -3.47256915 -0.30867281 0 0 Z " fill="#E8EBED" transform="translate(203,195)"/>
<path d="M0 0 C0.14695312 0.59167969 0.29390625 1.18335938 0.4453125 1.79296875 C2.13600229 7.74924943 3.87355729 10.50965602 9 14 C11.58120066 15.29060033 13.49419829 15.13272333 16.375 15.125 C17.33148438 15.12757813 18.28796875 15.13015625 19.2734375 15.1328125 C22.24498873 15.07691192 22.24498873 15.07691192 26 14 C26 18.95 26 23.9 26 29 C28.97 29 31.94 29 35 29 C35 26.36 35 23.72 35 21 C37 25 37 25 39 35 C-3.57 35 -46.14 35 -90 35 C-87.34543728 33.23029152 -85.13923626 32.1728342 -82.19311523 31.02880859 C-81.21878036 30.64856537 -80.2444455 30.26832214 -79.24058533 29.8765564 C-78.19052811 29.47127716 -77.14047089 29.06599792 -76.05859375 28.6484375 C-74.44066673 28.02009506 -74.44066673 28.02009506 -72.79005432 27.37905884 C-70.51022135 26.49474087 -68.22967915 25.61224947 -65.94848633 24.73144531 C-62.44602141 23.37829219 -58.94651827 22.01768528 -55.44726562 20.65625 C-53.23454875 19.79903054 -51.02166377 18.94224484 -48.80859375 18.0859375 C-47.23047157 17.47194595 -47.23047157 17.47194595 -45.62046814 16.84555054 C-44.64928543 16.47161163 -43.67810272 16.09767273 -42.67749023 15.71240234 C-41.82050034 15.38090179 -40.96351044 15.04940125 -40.08055115 14.70785522 C-38 14 -38 14 -36 14 C-36 14.66 -36 15.32 -36 16 C-33.36 16 -30.72 16 -28 16 C-28 14.35 -28 12.7 -28 11 C-26.35 10.34 -24.7 9.68 -23 9 C-23 11.31 -23 13.62 -23 16 C-20.03 16 -17.06 16 -14 16 C-14 12.37 -14 8.74 -14 5 C-12.04350603 4.16235732 -10.08474444 3.33000941 -8.125 2.5 C-7.03445312 2.0359375 -5.94390625 1.571875 -4.8203125 1.09375 C-2 0 -2 0 0 0 Z " fill="#0F1010" transform="translate(206,213)"/>
<path d="M0 0 C1 1 1 1 1.0625 4.5625 C1.041875 5.696875 1.02125 6.83125 1 8 C0.28972656 8.13277344 -0.42054688 8.26554688 -1.15234375 8.40234375 C-2.07144531 8.57894531 -2.99054688 8.75554687 -3.9375 8.9375 C-4.85402344 9.11152344 -5.77054688 9.28554687 -6.71484375 9.46484375 C-8.95289844 9.77714988 -8.95289844 9.77714988 -10 11 C-10.15740605 12.70563778 -10.25093392 14.41727244 -10.31640625 16.12890625 C-10.37924805 17.68061523 -10.37924805 17.68061523 -10.44335938 19.26367188 C-10.48267578 20.35228516 -10.52199219 21.44089844 -10.5625 22.5625 C-10.62727539 24.2012207 -10.62727539 24.2012207 -10.69335938 25.87304688 C-10.79982068 28.58189564 -10.90183516 31.29083992 -11 34 C-13.97 34 -16.94 34 -20 34 C-20 31.69 -20 29.38 -20 27 C-22.03241727 27.63979849 -22.03241727 27.63979849 -24 29 C-24.81171228 31.55519921 -24.81171228 31.55519921 -25 34 C-27.64 34 -30.28 34 -33 34 C-33 33.34 -33 32.68 -33 32 C-33.969375 32.515625 -34.93875 33.03125 -35.9375 33.5625 C-40.40391802 35.45597133 -44.37697617 35.43114246 -49 34 C-52.31631838 31.38928127 -54.42598891 28.89282787 -56 25 C-56.22705078 22.34277344 -56.22705078 22.34277344 -56.1953125 19.359375 C-56.18886719 18.28945312 -56.18242187 17.21953125 -56.17578125 16.1171875 C-56.15902344 15.00601563 -56.14226562 13.89484375 -56.125 12.75 C-56.11597656 11.62335938 -56.10695312 10.49671875 -56.09765625 9.3359375 C-56.07410658 6.55707635 -56.0412168 3.7786461 -56 1 C-53.03 1 -50.06 1 -47 1 C-46.97494385 1.65597168 -46.9498877 2.31194336 -46.92407227 2.98779297 C-46.8082674 5.95040183 -46.68547114 8.91268031 -46.5625 11.875 C-46.52318359 12.90753906 -46.48386719 13.94007813 -46.44335938 15.00390625 C-46.38051758 16.48310547 -46.38051758 16.48310547 -46.31640625 17.9921875 C-46.27974854 18.90339355 -46.24309082 19.81459961 -46.20532227 20.75341797 C-46.13422935 23.03483481 -46.13422935 23.03483481 -45 25 C-39.555 24.01 -39.555 24.01 -34 23 C-34 15.74 -34 8.48 -34 1 C-31.03 1 -28.06 1 -25 1 C-24.67 6.94 -24.34 12.88 -24 19 C-23.01 18.67 -22.02 18.34 -21 18 C-20.67 12.39 -20.34 6.78 -20 1 C-17.03 1 -14.06 1 -11 1 C-10.505 1.99 -10.505 1.99 -10 3 C-9.46375 2.505 -8.9275 2.01 -8.375 1.5 C-5.3872288 -0.38701339 -3.47256915 -0.30867281 0 0 Z " fill="#E8EAEB" transform="translate(203,195)"/>
<path d="M0 0 C5.03359633 2.3843351 8.49996787 5.99993573 11 11 C11.55713132 16.95701945 11.52180186 21.95208399 8 27 C3.47230949 31.3308344 -0.09292097 33.67089671 -6.3125 34.375 C-12.13430209 33.78295233 -16.34160188 31.74568224 -20.375 27.5 C-23.78987148 22.24635157 -24.99938898 18.27451432 -24 12 C-19.47007336 0.93764697 -11.30952608 -1.42629692 0 0 Z " fill="#EAEAEA" transform="translate(304,196)"/>
<path d="M0 0 C4.94586526 2.29629459 7.30760518 5.31323865 10 10 C11 13 11 13 11 20 C3.08 20 -4.84 20 -13 20 C-12.67 21.32 -12.34 22.64 -12 24 C-9.20251159 24.93249614 -7.45679119 25.13476152 -4.5625 25.125 C-3.80066406 25.12757813 -3.03882813 25.13015625 -2.25390625 25.1328125 C0.01001671 25.08279315 0.01001671 25.08279315 2.14453125 24.37890625 C2.75683594 24.25386719 3.36914062 24.12882812 4 24 C6.25 25.8125 6.25 25.8125 8 28 C8 28.66 8 29.32 8 30 C1.39974622 33.77731419 -4.5481368 33.91848546 -12 33 C-16.16004457 31.3883271 -18.28999144 28.93904358 -20.9375 25.4375 C-22.69716372 19.74447031 -23.44458396 13.38853029 -21.05078125 7.7734375 C-15.75898133 -0.07244881 -8.99858882 -1.08666812 0 0 Z " fill="#E5E5E5" transform="translate(383,196)"/>
<path d="M0 0 C12.87 0 25.74 0 39 0 C39 2.64 39 5.28 39 8 C34.38 8 29.76 8 25 8 C25 19.88 25 31.76 25 44 C21.7 44 18.4 44 15 44 C15 32.12 15 20.24 15 8 C10.05 8 5.1 8 0 8 C0 5.36 0 2.72 0 0 Z " fill="#E5E5E5" transform="translate(105,185)"/>
<path d="M0 0 C2.97 0 5.94 0 9 0 C9.01458252 0.65073486 9.02916504 1.30146973 9.04418945 1.97192383 C9.11864549 4.91938306 9.21531266 7.86570642 9.3125 10.8125 C9.33505859 11.83666016 9.35761719 12.86082031 9.38085938 13.91601562 C9.41630859 14.89892578 9.45175781 15.88183594 9.48828125 16.89453125 C9.51446533 17.80050049 9.54064941 18.70646973 9.56762695 19.63989258 C10.0778074 22.42471156 10.72605362 23.35112898 13 25 C17.07794425 25.42478586 18.53076119 25.31282587 22 23 C22.50904384 20.5842887 22.50904384 20.5842887 22.51171875 17.7734375 C22.54716797 16.7421875 22.58261719 15.7109375 22.61914062 14.6484375 C22.64169922 13.56820312 22.66425781 12.48796875 22.6875 11.375 C22.72166016 10.28703125 22.75582031 9.1990625 22.79101562 8.078125 C22.87368334 5.38551937 22.94277087 2.69324709 23 0 C25.64 0 28.28 0 31 0 C31 10.89 31 21.78 31 33 C28.36 33 25.72 33 23 33 C23 32.34 23 31.68 23 31 C22.45085937 31.32097656 21.90171875 31.64195312 21.3359375 31.97265625 C17.05558842 33.85515091 12.57130711 33.66719945 8 33 C4.82545395 31.34505254 2.62324361 29.24648722 1 26 C0.84621148 24.04225931 0.75028537 22.07982648 0.68359375 20.1171875 C0.64169922 18.95058594 0.59980469 17.78398437 0.55664062 16.58203125 C0.51732422 15.35871094 0.47800781 14.13539063 0.4375 12.875 C0.39431641 11.64394531 0.35113281 10.41289062 0.30664062 9.14453125 C0.20031296 6.09647147 0.09828219 3.0483281 0 0 Z " fill="#F0F0F0" transform="translate(245,196)"/>
<path d="M0 0 C1.83498047 -0.03867188 1.83498047 -0.03867188 3.70703125 -0.078125 C7.38085454 0.26822871 9.23174837 1.11059882 12.1875 3.25 C11.375 5.6875 11.375 5.6875 10.1875 8.25 C7.1875 9.25 7.1875 9.25 4.9375 8.3125 C1.56731859 7.01038445 -1.23035339 7.10952366 -4.8125 7.25 C-5.4725 8.57 -6.1325 9.89 -6.8125 11.25 C-5.25789063 11.54003906 -5.25789063 11.54003906 -3.671875 11.8359375 C-2.30202391 12.09864867 -0.93223548 12.36168671 0.4375 12.625 C1.11941406 12.75132812 1.80132812 12.87765625 2.50390625 13.0078125 C9.27582442 14.32274807 9.27582442 14.32274807 12.1875 16.25 C14.6790904 19.9873856 14.64543285 21.82331583 14.1875 26.25 C11.99806814 29.76872978 10.0412419 31.7837615 6.1875 33.25 C2.7265625 33.55078125 2.7265625 33.55078125 -1.1875 33.5625 C-2.47398437 33.57925781 -3.76046875 33.59601563 -5.0859375 33.61328125 C-9.00399454 33.23133229 -11.44251614 32.22712676 -14.8125 30.25 C-14.0625 27.8125 -14.0625 27.8125 -12.8125 25.25 C-10.9375 24.3125 -10.9375 24.3125 -8.8125 24.25 C-8.235 24.559375 -7.6575 24.86875 -7.0625 25.1875 C-3.59570375 26.82459823 -0.62850002 26.43464516 3.1875 26.25 C3.8475 25.92 4.5075 25.59 5.1875 25.25 C5.1875 24.26 5.1875 23.27 5.1875 22.25 C2.59990886 20.95620443 0.24645576 20.8540636 -2.625 20.5 C-6.57573959 19.84549572 -8.66429512 19.34690319 -12.0625 17.125 C-14.03243812 13.88867308 -14.53856387 11.92071216 -14.3125 8.18359375 C-13.46413253 4.90279768 -11.4006706 3.28356261 -8.8125 1.25 C-5.88789571 -0.21230215 -3.25597176 0.04091273 0 0 Z " fill="#EBEBEB" transform="translate(344.8125,195.75)"/>
<path d="M0 0 C-23.23585152 8.99530111 -46.48115023 17.96536011 -69.75 26.875 C-70.7620047 27.26258484 -71.7740094 27.65016968 -72.81668091 28.04949951 C-75.7057546 29.155808 -78.59501526 30.26162632 -81.484375 31.3671875 C-82.33158615 31.69150757 -83.1787973 32.01582764 -84.05168152 32.34997559 C-85.62862653 32.95298559 -87.2066836 33.55309813 -88.78601074 34.14984131 C-90.2500123 34.71200919 -91.70715533 35.29240963 -93.15637207 35.8916626 C-97.59012088 37.68674986 -100.00031264 38 -105 38 C-105 43.94 -105 49.88 -105 56 C-107.96606349 50.06787301 -109.33371704 44.67434076 -109 38 C-110.98 38 -112.96 38 -115 38 C-112.38516306 35.38516306 -110.03249759 34.86032927 -106.51171875 33.70703125 C-105.83821381 33.4844313 -105.16470886 33.26183136 -104.47079468 33.03248596 C-102.99378867 32.54516935 -101.51585629 32.06065392 -100.03713989 31.57855225 C-97.64920629 30.80001512 -95.26368236 30.01446456 -92.87866211 29.22705078 C-89.42154393 28.08623156 -85.96351904 26.94822005 -82.50488281 25.81201172 C-73.97934734 23.00870716 -65.4644897 20.17328796 -56.95004272 17.33651733 C-54.07043259 16.37764146 -51.19014847 15.42081023 -48.30981445 14.46411133 C-39.78650735 11.62893477 -31.27417152 8.77051439 -22.80078125 5.7890625 C-22.10970779 5.5466684 -21.41863434 5.30427429 -20.70661926 5.05453491 C-17.56148832 3.95023149 -14.42090116 2.83612539 -11.28540039 1.70458984 C-9.68619751 1.13925537 -9.68619751 1.13925537 -8.0546875 0.5625 C-7.14187012 0.23378906 -6.22905273 -0.09492188 -5.28857422 -0.43359375 C-3 -1 -3 -1 0 0 Z " fill="#1D8AF4" transform="translate(350,158)"/>
<path d="M0 0 C1 1 1 1 1.0625 4.5625 C1.041875 5.696875 1.02125 6.83125 1 8 C0.28972656 8.13277344 -0.42054688 8.26554688 -1.15234375 8.40234375 C-2.07144531 8.57894531 -2.99054688 8.75554687 -3.9375 8.9375 C-4.85402344 9.11152344 -5.77054688 9.28554687 -6.71484375 9.46484375 C-8.95289844 9.77714988 -8.95289844 9.77714988 -10 11 C-10.15740605 12.70563778 -10.25093392 14.41727244 -10.31640625 16.12890625 C-10.35830078 17.16337891 -10.40019531 18.19785156 -10.44335938 19.26367188 C-10.48267578 20.35228516 -10.52199219 21.44089844 -10.5625 22.5625 C-10.60568359 23.65498047 -10.64886719 24.74746094 -10.69335938 25.87304688 C-10.79982068 28.58189564 -10.90183516 31.29083992 -11 34 C-13.97 34 -16.94 34 -20 34 C-20 23.11 -20 12.22 -20 1 C-17.03 1 -14.06 1 -11 1 C-10.67 1.66 -10.34 2.32 -10 3 C-9.195625 2.2575 -9.195625 2.2575 -8.375 1.5 C-5.3872288 -0.38701339 -3.47256915 -0.30867281 0 0 Z " fill="#E9EAEB" transform="translate(203,195)"/>
<path d="M0 0 C2.97 0 5.94 0 9 0 C9 10.89 9 21.78 9 33 C6.03 33 3.06 33 0 33 C0 22.11 0 11.22 0 0 Z " fill="#E7E7E7" transform="translate(319,196)"/>
<path d="M0 0 C2.09765625 0.6953125 2.09765625 0.6953125 4.72265625 2.6953125 C6.66268981 6.92811299 6.50569734 10.2818036 5.09765625 14.6953125 C2.37954768 17.97303166 0.79002721 18.5840386 -3.40234375 19.2578125 C-6.90234375 18.6953125 -6.90234375 18.6953125 -9.83984375 16.7578125 C-12.24683813 13.18379054 -12.65104923 11.09212983 -12.375 6.859375 C-11.90234375 4.6953125 -11.90234375 4.6953125 -9.96484375 1.5703125 C-6.24073002 -0.70975713 -4.21803294 -0.77459703 0 0 Z " fill="#141414" transform="translate(300.90234375,203.3046875)"/>
<path d="M0 0 C0.52078125 0.37898437 1.0415625 0.75796875 1.578125 1.1484375 C1.71308751 3.25085353 1.81009807 5.3557336 1.890625 7.4609375 C1.94863281 8.63269531 2.00664062 9.80445313 2.06640625 11.01171875 C1.578125 14.1484375 1.578125 14.1484375 -0.72265625 16.03515625 C-4.27196612 17.49905395 -6.61511511 17.69226034 -10.421875 17.1484375 C-13.359375 15.1484375 -13.359375 15.1484375 -15.421875 12.1484375 C-15.82664427 9.34099936 -15.66418471 7.00769209 -15.421875 4.1484375 C-13.3465068 3.25470957 -11.26120494 2.38402054 -9.171875 1.5234375 C-8.01171875 1.03617188 -6.8515625 0.54890625 -5.65625 0.046875 C-2.421875 -0.8515625 -2.421875 -0.8515625 0 0 Z " fill="#111214" transform="translate(230.421875,204.8515625)"/>
<path d="M0 0 C1.5125971 3.0251942 0.97358935 4.81444823 0 8 C-2.65234375 9.6796875 -2.65234375 9.6796875 -5.9375 10.875 C-7.01902344 11.28492188 -8.10054687 11.69484375 -9.21484375 12.1171875 C-12 13 -12 13 -14 13 C-14 10.36 -14 7.72 -14 5 C-7.07 2.525 -7.07 2.525 0 0 Z " fill="#1E8EFC" transform="translate(206,205)"/>
<path d="M0 0 C3.29714793 0.32971479 4.6226839 0.6226839 7 3 C7.25 5.5 7.25 5.5 7 8 C5 10 5 10 2.5625 10.3125 C0 10 0 10 -1.875 8.8125 C-3 7 -3 7 -2.8125 4.4375 C-2 2 -2 2 0 0 Z " fill="#E2E2E2" transform="translate(321,182)"/>
<path d="M0 0 C3.23417254 0.02903207 3.98890774 0.1635558 6.6875 2.1875 C8.1875 4.3125 8.1875 4.3125 8.1875 6.3125 C2.9075 6.3125 -2.3725 6.3125 -7.8125 6.3125 C-4.23318966 0.34698276 -4.23318966 0.34698276 0 0 Z " fill="#161616" transform="translate(376.8125,202.6875)"/>
<path d="M0 0 C0.99 0 1.98 0 3 0 C4.31056858 5.06938111 5.61034388 10.14136002 6.90014648 15.21606445 C7.34053908 16.94240993 7.7838839 18.66800508 8.23022461 20.39282227 C8.87088202 22.87064854 9.50091138 25.35096976 10.12890625 27.83203125 C10.33093155 28.60400345 10.53295685 29.37597565 10.74110413 30.17134094 C12.11387171 35.65838488 12.11387171 35.65838488 11 39 C10.80889648 38.34104736 10.61779297 37.68209473 10.42089844 37.00317383 C9.53167231 33.93930295 8.64108127 30.87583186 7.75 27.8125 C7.431521 26.71728027 7.11304199 25.62206055 6.78491211 24.49365234 C4.80476906 17.70329648 2.77653782 10.9347421 0.62890625 4.1953125 C0 2 0 2 0 0 Z " fill="#1A77D2" transform="translate(282,375)"/>
<path d="M0 0 C0.33 0 0.66 0 1 0 C1.25 7.625 1.25 7.625 -1 11 C-3.6015625 11.94921875 -3.6015625 11.94921875 -6.625 12.6875 C-7.62789062 12.93886719 -8.63078125 13.19023437 -9.6640625 13.44921875 C-10.43492187 13.63097656 -11.20578125 13.81273437 -12 14 C-11.6875 11.625 -11.6875 11.625 -11 9 C-7.91111478 6.94074319 -7.29064073 6.7609626 -3.8125 6.875 C-1.9253125 6.936875 -1.9253125 6.936875 0 7 C0 4.69 0 2.38 0 0 Z " fill="#1D1F22" transform="translate(204,196)"/>
<path d="M0 0 C0 2.97 0 5.94 0 9 C-1.65 9.66 -3.3 10.32 -5 11 C-5 8.03 -5 5.06 -5 2 C-1 0 -1 0 0 0 Z " fill="#2490F9" transform="translate(183,213)"/>
<path d="M0 0 C1.5778125 0.1546875 1.5778125 0.1546875 3.1875 0.3125 C3.5175 0.9725 3.8475 1.6325 4.1875 2.3125 C2.58834119 3.01156942 0.98294955 3.69639468 -0.625 4.375 C-1.51832031 4.75785156 -2.41164062 5.14070312 -3.33203125 5.53515625 C-5.8125 6.3125 -5.8125 6.3125 -8.8125 5.3125 C-5.88314862 1.76177106 -4.6956049 0.38488565 0 0 Z " fill="#2B91F6" transform="translate(223.8125,202.6875)"/>
<path d="M0 0 C0 5.28 0 10.56 0 16 C-1.77586005 12.4482799 -2.48627846 10.08232923 -3.125 6.25 C-3.29257813 5.26515625 -3.46015625 4.2803125 -3.6328125 3.265625 C-3.75398437 2.51796875 -3.87515625 1.7703125 -4 1 C-1 0 -1 0 0 0 Z " fill="#0F1821" transform="translate(245,198)"/>
<path d="M0 0 C-0.33 0.99 -0.66 1.98 -1 3 C-3.06640625 3.94921875 -3.06640625 3.94921875 -5.5625 4.6875 C-6.38878906 4.93886719 -7.21507812 5.19023437 -8.06640625 5.44921875 C-8.70449219 5.63097656 -9.34257812 5.81273437 -10 6 C-8.375 2.15625 -8.375 2.15625 -5 0.75 C-2 0 -2 0 0 0 Z " fill="#1C83E7" transform="translate(328,164)"/>
<path d="M0 0 C-1 3 -1 3 -3 4 C-5.3329866 4.04022391 -7.66706666 4.04320247 -10 4 C-7.25346796 1.25346796 -3.91404908 0 0 0 Z " fill="#2A8DEE" transform="translate(169,218)"/>
</svg>
